<svg width="882" height="698" viewBox="0 0 882 698" fill="none" xmlns="http://www.w3.org/2000/svg">
<g id="undraw_social_friends_nsbv 1" clip-path="url(#clip0)">
<g id="rest">
<path id="Vector" d="M277.171 365.785L286.074 393.129L298.156 382.954L291.797 361.334L277.171 365.785Z" fill="#FFB9B9"/>
<path id="Vector_2" d="M162.709 249.415L165.888 292.021L242.832 293.928L276.535 370.872L294.976 363.241C294.976 363.241 273.991 290.749 264.453 267.856C254.914 244.964 218.668 261.497 218.668 261.497L215.489 255.138L162.709 249.415Z" fill="#2F2E41"/>
<path id="Vector_3" d="M282.258 388.042C282.258 388.042 283.53 408.39 285.438 409.662C287.345 410.934 301.971 408.39 301.971 408.39C301.971 408.39 306.366 409.367 324.228 404.575C344.309 399.188 321.684 391.221 321.684 391.221C321.684 391.221 307.058 381.683 300.699 377.231C294.34 372.78 289.889 382.319 289.889 382.319C291.161 386.134 282.258 388.042 282.258 388.042Z" fill="#2F2E41"/>
<path id="Vector_4" d="M791.028 470.435L793.052 541.286L814.645 624.283C814.645 624.283 809.921 638.453 813.295 641.827C816.669 645.201 832.189 651.274 832.189 651.274L819.368 474.483L791.028 470.435Z" fill="#2F2E41"/>
<path id="Vector_5" d="M837.908 641.481C837.908 641.481 845.608 658.422 834.827 659.962C824.047 661.502 774.252 665.609 777.332 656.882C780.412 648.155 817.887 639.941 817.887 639.941L837.908 641.481Z" fill="#2F2E41"/>
<path id="Vector_6" d="M866.602 407.681C866.602 407.681 858.505 451.541 853.107 458.964C847.709 466.386 855.806 520.368 855.806 520.368C855.806 520.368 867.952 597.967 862.554 610.113C857.156 622.259 858.505 618.21 859.18 624.958C859.855 631.706 861.204 637.104 859.18 643.177C857.156 649.25 857.156 648.575 856.481 651.949C855.806 655.323 856.481 673.541 856.481 673.541C856.481 673.541 827.466 683.663 822.742 668.818C822.742 668.818 829.49 659.371 827.466 651.949C825.355 644.479 824.221 636.767 824.092 629.006V614.836L793.052 498.775L785.63 456.939C785.63 456.939 787.654 414.429 795.076 410.38C802.499 406.331 866.602 407.681 866.602 407.681Z" fill="#2F2E41"/>
<path id="Vector_7" d="M854.456 670.168C854.456 670.168 864.578 692.435 850.408 694.459C836.238 696.484 770.785 701.882 774.833 690.411C778.882 678.94 828.14 668.143 828.14 668.143L854.456 670.168Z" fill="#2F2E41"/>
<path id="Vector_8" d="M841.629 213.374C856.535 213.374 868.62 201.29 868.62 186.383C868.62 171.477 856.535 159.393 841.629 159.393C826.722 159.393 814.638 171.477 814.638 186.383C814.638 201.29 826.722 213.374 841.629 213.374Z" fill="#FFB9B9"/>
<path id="Vector_9" d="M860.595 198.311L860.093 232.78L827.002 232.892C827.002 232.892 835.4 205.909 831.638 200.266C827.876 194.624 860.595 198.311 860.595 198.311Z" fill="#FFB9B9"/>
<path id="Vector_10" d="M811.271 251.808C811.271 251.808 834.888 221.444 853.107 234.264C871.326 247.085 878.074 277.45 878.074 277.45L874.025 362.471C874.025 362.471 863.903 374.617 869.976 382.714C876.049 390.812 879.423 388.787 874.7 394.86C869.976 400.933 864.578 405.657 866.602 407.681C868.627 409.705 864.578 411.055 864.578 411.055L793.052 413.079C793.052 413.079 795.076 410.38 789.003 402.283C782.931 394.185 790.353 383.389 789.003 379.34C787.654 375.292 786.304 380.015 785.63 370.568C784.955 361.122 811.271 251.808 811.271 251.808Z" fill="#3F3D56"/>
<path id="Vector_11" d="M818.019 425.9C818.019 425.9 816.669 442.769 806.548 445.468C802.752 446.48 799.905 444.551 797.83 441.744C795.892 439.053 794.805 435.844 794.711 432.529C794.616 429.215 795.518 425.948 797.3 423.152L799.8 419.152L818.019 425.9Z" fill="#FFB9B9"/>
<path id="Vector_12" d="M880.435 217.732C880.435 217.732 881.11 231.228 880.435 233.252C879.76 235.276 879.086 237.301 880.435 239.325C881.785 241.349 881.11 248.097 879.76 248.772C878.411 249.447 882.46 255.52 881.11 259.568C879.76 263.617 878.411 264.966 877.736 266.316C877.061 267.665 875.974 270.083 875.974 270.083C875.974 270.083 856.143 227.854 839.949 237.975C823.754 248.097 810.934 251.471 810.934 251.471C810.934 251.471 819.706 204.237 880.435 217.732Z" fill="#3F3D56"/>
<path id="Vector_13" d="M851.083 249.109C851.083 249.109 872.675 251.134 871.326 279.474C869.976 307.814 873.35 352.349 873.35 352.349C873.35 352.349 836.238 409.03 830.165 413.079C824.092 417.128 823.417 416.453 824.092 419.827C824.766 423.201 825.441 425.9 822.742 428.599C821.149 430.203 819.33 431.567 817.344 432.647C817.344 432.647 795.751 425.225 797.775 418.477C799.8 411.729 809.247 400.933 809.247 400.933C809.247 400.933 825.441 374.617 826.116 370.568C826.791 366.52 826.791 367.194 828.815 365.17C830.839 363.146 836.237 355.049 836.237 351V338.179L830.58 269.665C830.324 266.875 830.66 264.062 831.568 261.41C832.476 258.759 833.934 256.33 835.848 254.283C839.059 250.923 843.913 248.249 851.083 249.109Z" fill="#3F3D56"/>
<path id="Vector_14" d="M824.222 165.569C822.463 166.056 820.611 166.098 818.832 165.69C817.052 165.283 815.403 164.439 814.031 163.235C811.393 160.729 810.507 156.386 812.383 153.269C814.004 150.577 817.156 149.261 820.156 148.325C826.772 146.263 833.661 145.212 840.591 145.208C843.895 145.207 847.345 145.489 850.172 147.198C851.571 148.044 852.756 149.206 854.139 150.077C856.682 151.68 859.736 152.212 862.528 153.326C865.383 154.486 867.956 156.246 870.072 158.487C872.187 160.727 873.797 163.397 874.792 166.313C875.433 168.292 875.833 170.34 875.984 172.414C876.441 178.095 875.437 183.798 873.068 188.982C869.303 197.191 862.137 204.094 861.124 213.069C857.267 209.831 856.136 204.399 853.148 200.345C850.924 197.347 847.749 195.191 844.141 194.231C843.133 194.098 842.186 193.674 841.414 193.012C840.895 192.294 840.598 191.439 840.56 190.554L838.709 177.22C838.332 174.506 837.823 171.541 835.74 169.76C834.434 168.788 832.921 168.131 831.318 167.841C827.529 166.899 823.668 166.27 819.776 165.959" fill="#2F2E41"/>
<path id="Vector_15" opacity="0.1" d="M870.068 361.988L832.189 411.145C832.189 411.145 867.068 381.988 870.068 361.988Z" fill="black"/>
<path id="Vector_16" opacity="0.1" d="M833.709 307.563L834.068 353.988L812.068 386.988L830.068 349.988L833.709 307.563Z" fill="black"/>
<path id="Vector_17" d="M603.007 285.533H373.575V280.804H269.541V285.533H39.1634C35.0474 285.533 31.1 287.168 28.1895 290.078C25.2791 292.989 23.644 296.936 23.644 301.052V615.216C23.644 619.332 25.2791 623.279 28.1895 626.189C31.1 629.1 35.0474 630.735 39.1634 630.735H603.007C605.045 630.735 607.063 630.334 608.946 629.554C610.829 628.774 612.54 627.631 613.981 626.189C615.422 624.748 616.565 623.038 617.345 621.155C618.125 619.272 618.526 617.254 618.526 615.216V301.052C618.526 299.014 618.125 296.996 617.345 295.113C616.565 293.23 615.422 291.52 613.981 290.078C612.54 288.637 610.829 287.494 608.946 286.714C607.063 285.934 605.045 285.533 603.007 285.533Z" fill="#3F3D56"/>
<path id="Vector_18" opacity="0.1" d="M597.72 312.96H44.4507V625.06H597.72V312.96Z" fill="black"/>
<path id="Vector_19" d="M320.612 304.448C323.746 304.448 326.287 301.908 326.287 298.774C326.287 295.64 323.746 293.099 320.612 293.099C317.478 293.099 314.938 295.64 314.938 298.774C314.938 301.908 317.478 304.448 320.612 304.448Z" fill="#3F51B5"/>
<path id="Vector_20" d="M595.155 312.804H45.3796V624.789H595.155V312.804Z" fill="#E6E6E6"/>
<path id="Vector_21" d="M579.434 334.122H61.1003V605.127H579.434V334.122Z" fill="white"/>
<path id="Vector_22" d="M241.385 362.241H108.198V577.008H241.385V362.241Z" fill="#E6E6E6"/>
<path id="Vector_23" d="M375.365 437.821H264.376V501.428H375.365V437.821Z" fill="#E6E6E6"/>
<path id="Vector_24" d="M375.365 517.891H264.376V577.008H375.365V517.891Z" fill="#E6E6E6"/>
<path id="Vector_25" d="M532.336 362.241H399.149V455.835H532.336V362.241Z" fill="#E6E6E6"/>
<path id="Vector_26" d="M634.061 619.386H580.066V615.496C580.066 615.394 580.046 615.294 580.007 615.2C579.968 615.107 579.911 615.022 579.84 614.95C579.768 614.879 579.683 614.822 579.589 614.783C579.496 614.744 579.396 614.724 579.294 614.724H560.781C560.68 614.724 560.58 614.744 560.486 614.783C560.393 614.822 560.308 614.879 560.236 614.95C560.164 615.022 560.108 615.107 560.069 615.2C560.03 615.294 560.01 615.394 560.01 615.496V619.386H548.44V615.496C548.44 615.394 548.42 615.294 548.381 615.2C548.342 615.107 548.285 615.022 548.214 614.95C548.142 614.879 548.057 614.822 547.964 614.783C547.87 614.744 547.77 614.724 547.668 614.724H529.156C529.054 614.724 528.954 614.744 528.86 614.783C528.767 614.822 528.682 614.879 528.61 614.95C528.538 615.022 528.482 615.107 528.443 615.2C528.404 615.294 528.384 615.394 528.384 615.496V619.386H516.814V615.496C516.814 615.394 516.794 615.294 516.755 615.2C516.716 615.107 516.659 615.022 516.588 614.95C516.516 614.879 516.431 614.822 516.338 614.783C516.244 614.744 516.144 614.724 516.042 614.724H497.53C497.428 614.724 497.328 614.744 497.234 614.783C497.141 614.822 497.056 614.879 496.984 614.95C496.913 615.022 496.856 615.107 496.817 615.2C496.778 615.294 496.758 615.394 496.758 615.496V619.386H485.188V615.496C485.188 615.394 485.168 615.294 485.129 615.2C485.09 615.107 485.034 615.022 484.962 614.95C484.89 614.879 484.805 614.822 484.712 614.783C484.618 614.744 484.518 614.724 484.416 614.724H465.904C465.802 614.724 465.702 614.744 465.609 614.783C465.515 614.822 465.43 614.879 465.358 614.95C465.287 615.022 465.23 615.107 465.191 615.2C465.152 615.294 465.132 615.394 465.132 615.496V619.386H453.562V615.496C453.562 615.394 453.542 615.294 453.503 615.2C453.464 615.107 453.408 615.022 453.336 614.95C453.264 614.879 453.179 614.822 453.086 614.783C452.992 614.744 452.892 614.724 452.791 614.724H434.278C434.177 614.724 434.076 614.744 433.983 614.783C433.889 614.822 433.804 614.879 433.732 614.95C433.661 615.022 433.604 615.107 433.565 615.2C433.526 615.294 433.506 615.394 433.506 615.496V619.386H421.936V615.496C421.936 615.394 421.916 615.294 421.877 615.2C421.839 615.107 421.782 615.022 421.71 614.95C421.638 614.879 421.553 614.822 421.46 614.783C421.366 614.744 421.266 614.724 421.165 614.724H402.652C402.551 614.724 402.45 614.744 402.357 614.783C402.263 614.822 402.178 614.879 402.106 614.95C402.035 615.022 401.978 615.107 401.939 615.2C401.9 615.294 401.881 615.394 401.881 615.496V619.386H390.31V615.496C390.31 615.394 390.29 615.294 390.251 615.2C390.213 615.107 390.156 615.022 390.084 614.95C390.013 614.879 389.927 614.822 389.834 614.783C389.74 614.744 389.64 614.724 389.539 614.724H244.522C244.318 614.724 244.122 614.806 243.977 614.95C243.832 615.095 243.751 615.291 243.751 615.496V619.386H232.18V615.496C232.18 615.394 232.161 615.294 232.122 615.2C232.083 615.107 232.026 615.022 231.955 614.95C231.883 614.879 231.798 614.822 231.704 614.783C231.611 614.744 231.51 614.724 231.409 614.724H212.896C212.692 614.724 212.496 614.806 212.351 614.95C212.206 615.095 212.125 615.291 212.125 615.496V619.386H200.555V615.496C200.555 615.394 200.535 615.294 200.496 615.2C200.457 615.107 200.4 615.022 200.329 614.95C200.257 614.879 200.172 614.822 200.078 614.783C199.985 614.744 199.885 614.724 199.783 614.724H181.271C181.066 614.724 180.87 614.806 180.725 614.95C180.58 615.095 180.499 615.291 180.499 615.496V619.386H168.929V615.496C168.929 615.394 168.909 615.294 168.87 615.2C168.831 615.107 168.774 615.022 168.703 614.95C168.631 614.879 168.546 614.822 168.453 614.783C168.359 614.744 168.259 614.724 168.157 614.724H149.645C149.44 614.724 149.244 614.806 149.099 614.95C148.954 615.095 148.873 615.291 148.873 615.496V619.386H137.303V615.496C137.303 615.394 137.283 615.294 137.244 615.2C137.205 615.107 137.148 615.022 137.077 614.95C137.005 614.879 136.92 614.822 136.827 614.783C136.733 614.744 136.633 614.724 136.531 614.724H118.019C117.814 614.724 117.618 614.806 117.473 614.95C117.329 615.095 117.247 615.291 117.247 615.496V619.386H105.677V615.496C105.677 615.394 105.657 615.294 105.618 615.2C105.579 615.107 105.523 615.022 105.451 614.95C105.379 614.879 105.294 614.822 105.201 614.783C105.107 614.744 105.007 614.724 104.906 614.724H86.3927C86.1882 614.724 85.992 614.806 85.8473 614.95C85.7027 615.095 85.6214 615.291 85.6214 615.496V619.386H74.0509V615.496C74.0509 615.394 74.031 615.294 73.9922 615.2C73.9534 615.107 73.8966 615.022 73.825 614.95C73.7534 614.879 73.6683 614.822 73.5748 614.783C73.4812 614.744 73.3809 614.724 73.2796 614.724H54.7668C54.5622 614.724 54.366 614.806 54.2214 614.95C54.0767 615.095 53.9955 615.291 53.9955 615.496V619.386H18.5127C13.6028 619.386 8.89407 621.336 5.42226 624.808C1.95045 628.28 0 632.989 0 637.899V646.27C7.95649e-06 651.18 1.95046 655.888 5.42227 659.36C8.89408 662.832 13.6028 664.782 18.5127 664.782H634.061C638.971 664.782 643.68 662.832 647.151 659.36C650.623 655.888 652.574 651.18 652.574 646.27V637.899C652.574 632.989 650.623 628.28 647.151 624.808C643.68 621.336 638.971 619.386 634.061 619.386Z" fill="#3F3D56"/>
<path id="Vector_27" d="M138.343 78.5538C134.973 83.0562 132.933 88.4131 132.454 94.0164C131.768 100.837 129.771 111.746 123.96 117.48C115.106 126.217 112.155 132.769 112.155 132.769L115.106 136.045C115.106 129.493 119.041 128.401 119.041 128.401L118.057 136.045C144.618 161.162 203.644 138.229 203.644 138.229L201.676 118.572C206.595 120.757 208.562 136.045 208.562 136.045L216.432 133.861C216.432 133.861 202.66 109.836 193.806 87.9952C184.952 66.1542 171.18 71.6145 171.18 71.6145C154.948 62.9388 144.227 70.9841 138.343 78.5538Z" fill="#2F2E41"/>
<path id="Vector_28" d="M223.119 382.954C226.299 388.042 226.935 414.114 226.935 414.114L249.191 400.124L242.832 377.231L223.119 382.954Z" fill="#FFB9B9"/>
<path id="Vector_29" d="M191.96 246.236C191.96 246.236 163.981 246.236 148.719 255.138C143.813 258 142.39 263.161 142.717 268.848C143.571 283.703 155.704 295.435 170.556 296.354L213.581 299.016C207.222 316.821 221.848 386.134 221.848 386.134L244.74 382.954C244.74 382.954 241.561 359.426 242.196 358.154C242.832 356.882 248.555 307.282 244.74 281.21C240.925 255.138 188.781 265.949 188.781 265.949L191.96 246.236Z" fill="#2F2E41"/>
<path id="Vector_30" d="M186.577 115.09C188.603 102.61 180.127 90.8518 167.647 88.8266C155.167 86.8014 143.409 95.2767 141.384 107.757C139.358 120.237 147.834 131.995 160.314 134.02C172.793 136.046 184.552 127.57 186.577 115.09Z" fill="#FFB9B9"/>
<path id="Vector_31" d="M154.442 128.594C162.709 140.676 152.534 147.671 152.534 147.671L148.083 180.738C148.083 180.738 195.776 185.189 204.042 178.83C212.309 172.471 194.504 151.487 188.145 149.579C181.786 147.671 180.514 121.599 180.514 121.599L154.442 128.594Z" fill="#FFB9B9"/>
<path id="Vector_32" d="M155.686 144.283L130.596 140.358L127.734 167.384C127.734 167.384 129.006 227.795 127.734 238.605C126.462 249.415 149.355 261.497 149.355 261.497C149.355 261.497 182.422 258.954 188.781 255.774C195.14 252.595 215.489 258.954 215.489 258.954C217.755 259.08 220.025 258.756 222.166 258C225.981 256.728 212.309 166.112 212.309 166.112L200.227 138.133L185.601 143.856L181.15 164.84L155.686 144.283Z" fill="#3F51B5"/>
<path id="Vector_33" d="M129.615 214.843L192.614 217.215C192.614 217.215 216.093 204.279 220.577 221.046C225.062 237.814 191.537 230.14 191.537 230.14L131.5 231.269L129.615 214.843Z" fill="#FFB9B9"/>
<path id="Vector_34" d="M135.047 210.307L164.299 212.215L168.114 231.928C168.114 231.928 132.504 231.292 118.514 230.656C104.524 230.02 118.514 170.882 120.421 153.076C122.329 135.271 131.868 140.358 131.868 140.358L137.591 144.81L135.047 210.307Z" fill="#3F51B5"/>
<path id="Vector_35" opacity="0.15" d="M140.135 203.948L165.571 214.123L137.591 208.399L135.683 172.153L140.135 203.948Z" fill="black"/>
<path id="Vector_36" d="M188.155 103.804L146.155 104.804L141.155 83.804H188.155V103.804Z" fill="#2F2E41"/>
</g>
<g id="panel1">
<path id="Vector_37" d="M375.365 362.241H264.376V421.358H375.365V362.241Z" fill="#FFEB3B"/>
</g>
<g id="panel2">
<path id="Vector_38" d="M532.336 483.414H399.149V577.008H532.336V483.414Z" fill="#FFEB3B"/>
</g>
<path id="Vector_39" d="M225.663 408.39C225.663 408.39 223.755 426.832 224.391 429.375C225.027 431.919 251.099 433.191 274.627 426.196C298.156 419.201 271.448 411.57 271.448 411.57C271.448 411.57 255.55 400.76 251.099 396.944C246.648 393.129 240.289 402.031 240.289 402.031C239.017 407.755 225.663 408.39 225.663 408.39Z" fill="#2F2E41"/>
<g id="hand">
<path id="Vector_40" d="M230.75 89.8041L240.289 27.4859C240.289 27.4859 230.114 2.68574 247.284 0.142136C264.453 -2.40146 253.007 30.0295 253.007 30.0295L247.284 89.8041H230.75Z" fill="#FFB9B9"/>
<path id="Vector_41" d="M209.766 165.476L235.202 133.045L253.007 89.168L228.207 79.63L218.032 115.876L200.227 137.497L199.591 141.312L209.766 165.476Z" fill="#3F51B5"/>
</g>
</g>
<defs>
<clipPath id="clip0">
<rect width="881.389" height="697.508" fill="white"/>
</clipPath>
</defs>
</svg>
